<svg xmlns="http://www.w3.org/2000/svg" viewBox="0 0 1401.59 1566.51"><defs><style>.cls-1{fill:#ff854c;}.cls-2{fill:#2e2e47;}.cls-3{fill:#84ceca;}.cls-4{fill:#ffa982;}.cls-5{fill:#fff;}.cls-6{fill:#d84839;}.cls-7{fill:#59342e;}.cls-8{fill:#9c6f43;}.cls-9{fill:#eae6e4;}.cls-10{fill:#f2836d;}.cls-11{fill:#774237;}.cls-12{fill:#fa634b;}.cls-13{fill:#af7c4e;}.cls-14{fill:#453f63;}.cls-15{fill:#82664b;}.cls-16{fill:#ffc97d;}</style></defs><g id="레이어_2" data-name="레이어 2"><g id="_1" data-name=" 1"><path class="cls-1" d="M56.77,1181.74c98.32-105.86,201.67,64.14,201.67,64.14s81.94-89.36,158-17.47,111.14,182.07,111.14,182.07,132.39-39.71,192.1-7.9,142,81,142,81H30.55S-41.55,1287.59,56.77,1181.74Z"/><path class="cls-1" d="M1129.17,1083.78s-9.66-33.65-40.09-30c-36.35,4.37-98.7,31.53-121.81,23.25,0,0,22.32,38.15,109.67,52.76C1133.72,1139.29,1139.09,1101.11,1129.17,1083.78Z"/><path class="cls-2" d="M1080.49,1097.22c-33.49,0-69-7.68-69.37-7.76a1.5,1.5,0,1,1,.65-2.93c.43.09,44,9.52,79.8,7.38,29.39-1.75,63.31-25.24,63.65-25.48a1.5,1.5,0,0,1,1.72,2.46c-1.41,1-35,24.22-65.19,26C1088.06,1097.12,1084.29,1097.22,1080.49,1097.22Z"/><path class="cls-2" d="M1020.68,1103.86a1.5,1.5,0,0,1-.55-2.89l20.94-8.29-12.8-13.77a1.5,1.5,0,0,1,2.2-2l15.78,17-25,9.91A1.49,1.49,0,0,1,1020.68,1103.86Z"/><path class="cls-2" d="M1064.41,1111a1.5,1.5,0,0,1-.84-2.75l18.76-12.55-22.41-15a1.5,1.5,0,0,1,1.66-2.5l26.14,17.45-22.48,15A1.41,1.41,0,0,1,1064.41,1111Z"/><path class="cls-2" d="M1098.1,1123a1.56,1.56,0,0,1-.69-.17,1.5,1.5,0,0,1-.64-2l15.39-30-12.34-22.4a1.5,1.5,0,1,1,2.63-1.44l13.11,23.8-16.13,31.37A1.49,1.49,0,0,1,1098.1,1123Z"/><path class="cls-1" d="M1374.12,484.65s-23.3-2.06-28.32,17.8c-6,23.71-4,69.09-14.72,81.52,0,0,29.14-4.77,59.2-55.72C1409.82,495.12,1387.3,482.62,1374.12,484.65Z"/><path class="cls-2" d="M1348.5,560.55a1.46,1.46,0,0,1-.82-.25,1.5,1.5,0,0,1-.43-2.07c.17-.25,16.44-25.08,23.69-47.86,5.92-18.6-.56-45.26-.62-45.53a1.5,1.5,0,0,1,2.91-.72c.28,1.13,6.74,27.74.57,47.15-7.38,23.19-23.88,48.36-24,48.61A1.5,1.5,0,0,1,1348.5,560.55Z"/><path class="cls-2" d="M1359.68,558.24a1.5,1.5,0,0,1-1.5-1.49l-.14-14.31-11,4.4a1.5,1.5,0,1,1-1.11-2.78l15-6,.18,18.71a1.5,1.5,0,0,1-1.49,1.51Z"/><path class="cls-2" d="M1374.6,532.69a1.51,1.51,0,0,1-1.46-1.17l-3.16-14-14.1,10a1.5,1.5,0,0,1-2.09-.36,1.51,1.51,0,0,1,.36-2.09l17.76-12.54,4.16,18.35a1.51,1.51,0,0,1-1.14,1.8A1.86,1.86,0,0,1,1374.6,532.69Z"/><path class="cls-2" d="M1390.19,514.57a1.48,1.48,0,0,1-1.12-.5l-14.81-16.59-16.67,2.29a1.5,1.5,0,1,1-.4-3l18.24-2.5,15.87,17.78a1.5,1.5,0,0,1-1.11,2.5Z"/><ellipse class="cls-3" cx="620.17" cy="1537.02" rx="466.61" ry="29.5"/><path class="cls-2" d="M199.76,274.83s11,46.57,11.5,57.33l.49,10.75s146.39-16.85,169.65-12.43c0,0,207.55-67.31,259.85-69.75,0,0,138.44-70.86,211.41-93.85,0,0,30.36-65.18,60.63-87.16l-170.17-22-320,81.68S240.73,226.42,199.76,274.83Z"/><path class="cls-4" d="M339.77,1457.75c-6.67,2.61-.95,19.47-8.77,15.83s-14.68-12.35-15.68-21.72-.66-23-12.16-26h0c5.34-3.46,8-14.12,27.52-29.32,3.86-3,46.31,8.47,45.3,11.68l-23,54S346.44,1455.14,339.77,1457.75Z"/><path class="cls-2" d="M372.49,1525c-15.71,6.35-23.47,4.26-32.34-.57s-7.54-15-18.4-17.48-8.16,3.37-13.15-3.74-6.81-57.81-32.88-60.61c4.33-2.26,22.09-14.81,25.22-15.53a8.5,8.5,0,0,0,2.22-1.15h0c11.5,2.92,11.15,16.59,12.16,26s7.86,18.07,15.68,21.72,2.1-13.22,8.77-15.83,13.17,4.52,13.17,4.52,4.23,3.19,3.87,12.54,5.7,19.2,8.38,22S385.7,1505,385.7,1505,388.19,1518.63,372.49,1525Z"/><path class="cls-5" d="M275.72,1442.58c26.07,2.8,27.9,53.51,32.88,60.61s2.28,1.21,13.15,3.74,9.52,12.64,18.4,17.48,16.63,6.92,32.34.57,13.21-20,13.21-20,6.36-6.91,17.54.31,18.38,18.25,8.43,30.16-42,16.41-58.33,14.17a110.66,110.66,0,0,1-27.93-7.51s5.22-8.87-3-9-8.24,3-8.24,3l-23.41-20.47s7.66-14.5.29-16.19-6.82,10.8-16.11,7.12-35.12-41.94-29.11-51.18S271.4,1444.85,275.72,1442.58Z"/><path class="cls-4" d="M717.94,1469.78c-3.16,6.43,12.43,15,4.2,17.6s-19.17.78-26.23-5.47-16-16.58-26.47-11h0c1.61-6.16,3.18-21.31,2.27-25.35-1.08-4.76,45.45-10.56,46.87-7.51l12.14,26.17S721.11,1463.36,717.94,1469.78Z"/><path class="cls-2" d="M799,1522.53c-13.52,10.2-26-6.18-35.8-3.76s-15.64-6-25.38-.51-3.75,8-12.23,6.09-44-38.1-65.14-22.6c1.67-4.59,6.34-25.83,8.16-28.48a8.42,8.42,0,0,0,.87-2.34h0c10.46-5.6,19.41,4.74,26.47,11s18,8,26.23,5.47-7.36-11.17-4.2-17.6,12.78-5.54,12.78-5.54,5.28-.49,11.31,6.66,17.16,10.34,21,10.58,43.5,18.28,43.5,18.28S812.49,1512.33,799,1522.53Z"/><path class="cls-5" d="M660.41,1501.75c21.14-15.5,56.67,20.72,65.14,22.6s2.5-.63,12.23-6.09,15.56,2.92,25.38.51,22.28,14,35.8,3.76,7.58-22.77,7.58-22.77,4.36-8.32,17-4.24,22.49,12.87,16,27-37.87,21.42-54.23,23.48-21.1-4.2-21.1-4.2-2.12-10.08-8.26-4.67-4.08,7.75-4.08,7.75l-31.1.66s-4.11-15.87-10.7-12.15,2.24,12.57-7.1,16.12-54.21-7.31-56-18.19S658.74,1506.34,660.41,1501.75Z"/><path class="cls-6" d="M591.47,176.44c-2.4,1-37.68,17.5-53.91,28.42s-38.14,28.28-32.62,42.29c11,27.91,122.12-12.8,177.87-36.13s41.77-48.36,18.74-50.3S628.72,160.75,591.47,176.44Z"/><path class="cls-7" d="M649,168.93c37.12,40.68,3.62,149.84-30.6,195.55-40.78,54.48-174.41,90.26-158.61,0,8.54-48.83,47.37-81.24,77.82-110.91,25.84-25.18,43.41-50.15,54.8-63C617.18,162.5,645.21,164.84,649,168.93Z"/><path class="cls-8" d="M913,719.82c-12.82-19.05-130.81-188.14-138.61-207.67C741,428.61,690.28,331.58,690.28,331.58s-43.43,10.87-25.3,65.78c13.62,41.28,19.82,154.68,50.4,216,33.44,67.07,53.13,105.09,100.7,156.61C852.88,809.84,931.81,747.79,913,719.82Z"/><path class="cls-2" d="M840.82,777.07s-18.38,1-9.35-14.18,56.19-48.57,70.28-40.88,12.89,14.67-1.62,27S875,775.78,840.82,777.07Z"/><path class="cls-4" d="M884.74,729.18s27.89,10.26,32,13.18,30.46,49.25,24.18,55-11.48,2-13.18,2.2-10.82,1.08-11.71,1-4.34-.8-6.74-1-8.81,2-11.44,1-7.89-21.17-11.2-25.49-22.88-21.81-24.8-25.65S876.77,729.38,884.74,729.18Z"/><path class="cls-2" d="M1008.7,827.67c0-30.78-46-53.43-69.07-63.15s-34.38,4.8-34.38,4.8-8.71,10.51-9.39,24.24,20.27,33.29,20.27,33.29.56,28.29,30.62,42S1008.73,858.44,1008.7,827.67Zm-84-11.59s-16.51-9.1-19-18.94S908,770.55,919.84,770s34.61,12.68,34.61,12.68Z"/><path class="cls-4" d="M916.7,742.36s13.14,5.64,19.2,13,9.83,16,13.42,20.46-13,4.59-19.42-5.47S905.91,740.21,916.7,742.36Z"/><path class="cls-2" d="M1253.42,1360.62a3,3,0,0,1-2.7-1.7L992.63,822.44a3,3,0,1,1,5.41-2.6l258.08,536.48a3,3,0,0,1-2.7,4.3Z"/><path class="cls-9" d="M456.63,703.45c-33.11,22.92-37.2,277-53.95,323.11-52.22,143.6-137.8,331.73-137.8,331.73s24.6,50.59,113,68c32.88,6.47,69.73,3,69.73,3s82.12-230.74,101.53-309.93c10.59-43.19,29.1-175.51,29.1-175.51l66.78,496.17s37.78,17.28,52,16.22c71.56-5.38,108.87-38.69,108.87-38.69l-82.65-625.7S483.05,685.16,456.63,703.45Z"/><path class="cls-2" d="M401.57,1029.6c-5.47,15-11.29,30.42-17.33,46.05l156.39,75.08c3.49-12,6.4-22.57,8.55-31.34,1.69-6.9,3.59-16.08,5.58-26.63Z"/><path class="cls-2" d="M603.76,1133.2c16.91-.49,110.77-3.81,162.19-18.2l-10.53-79.75-158.16,49.66Z"/><path class="cls-8" d="M665.05,299.42s-15.1-48.37-48.19-53.78S551.7,271,541.14,297.8,642.81,306.48,665.05,299.42Z"/><path class="cls-8" d="M684.73,312c-20.11-26.69-51.87-44.3-119.18-25.84S481,575.45,481,575.45s-38.23,64.43-49.32,111.08c-26,109.41-49.9,235.92-90.19,344.39,0,0,110.22,85,214.58,98.63l22.2-124.75-9.93,124.75s100.56-14.7,173.75-46.42c43.52-18.86,55.12-55.12,55.12-55.12s-49.57-327.11-69.4-446.2S729.16,370.94,684.73,312Z"/><path class="cls-5" d="M578.28,283.07s.2,21.71,7.18,56.72c5.49,27.48,40.2,157.83,45.43,147.72S646.25,351.69,645,326.9s-7.62-42.78-19.54-45.15S579.63,281.71,578.28,283.07Z"/><path class="cls-2" d="M631.58,513.16c-1.71,0-4.73-1.62-11.65-10.18-11.57-14.31-30.87-44.45-49.17-76.78-7.11-12.55-30.1-53.93-27.52-59.41a4.67,4.67,0,0,1,3.09-2.67c4.71-1.28,12.48,4,18.15,7.88l2.58,1.74c-1.88-2.06-4.93-5.1-7.92-8.07-9.18-9.11-20.6-20.46-23.23-26.89-4.39-10.73,4.9-42.38,5.3-43.72a1,1,0,1,1,1.91.57c-.09.32-9.49,32.31-5.36,42.39,2.48,6.06,14.22,17.72,22.79,26.24,8.29,8.23,10.39,10.46,10.35,11.72a1.25,1.25,0,0,1-.4.86c-1.08.94-2.73-.18-7.14-3.19-5.05-3.44-12.68-8.64-16.51-7.6a2.68,2.68,0,0,0-1.8,1.59c-1.16,2.47,7.89,23,27.45,57.58,18.25,32.24,37.48,62.27,49,76.5,7.65,9.46,9.89,9.5,10.26,9.42,1.12-.26,5.86-3.9,19.52-39.6,17.13-44.76,34.69-104.58,32.36-110-8.41,1.75-16.91,7.88-17,7.94l-2.53,1.84,1-3c.1-.3,10-29.91,9.89-40.69s-14.76-37.95-14.91-38.22a1,1,0,1,1,1.76-.95c.62,1.13,15,27.95,15.15,39.15.1,9.25-6.59,30.87-9.09,38.59,3.28-2.06,9.4-5.49,15.6-6.72.27-.05,1.68-.22,2.1,1.74,1.5,7-9.53,45.38-21.21,79.75-5.59,16.46-24.44,70.3-32.18,72.11A2.77,2.77,0,0,1,631.58,513.16Z"/><path class="cls-4" d="M590.29,242.31s3.2,15.28,1.94,24.82C590.26,282,584,290,584,290s15.7,22.88,40.37,11.33a20.52,20.52,0,0,0,8.51-7.49,8.88,8.88,0,0,0-.73-10.92c-3.51-3.94-9.75-13.42-13.13-33.38C617.78,242.18,590.29,242.31,590.29,242.31Z"/><path class="cls-2" d="M619.05,249.7l-18-.78s5.75,15.38,23,19.76A99.16,99.16,0,0,1,619.05,249.7Z"/><path class="cls-4" d="M577.38,222.82s-2.74,2.08-6.83-1.88c-3.25-3.15-3.19-16,.09-19s5.4-1.42,6.33-1.64-1.13-8.37,4.51-18.6,57.59-16.57,63-9.32,5.53,21.93,6,28.92,2,9.11,3.25,12.89c2.8,8.73,3.84,14.88,1,24.66S641.29,258.11,625,257.56,582.62,248.71,577.38,222.82Z"/><path class="cls-2" d="M630.88,221.62a12.86,12.86,0,0,1-2-.16c-1.94-.33-3.14-1.12-3.4-2.22a1,1,0,0,1,1.95-.46c.1.2,1,.77,3.11.83,2.51.06,5.52-.71,6.54-2.59s-.29-4.35-1.53-6.12c-4.56-6.46-6.64-9.7-6.76-11.55-.12-.69-.89-5.76,1.7-8.83a6.84,6.84,0,0,1,5.7-2.27c2.35-.1,10.37-.31,12.38,1.31a1,1,0,1,1-1.26,1.55c-1-.78-6.52-1.06-11.1-.86a5,5,0,0,0-4.19,1.56c-2.11,2.49-1.26,7.2-1.25,7.24l0,.15c.05,1.55,3.87,7,6.39,10.55,3,4.23,2.46,7,1.48,8.51C637.21,220.58,633.9,221.62,630.88,221.62Z"/><path class="cls-2" d="M605.58,191.55a1,1,0,0,1-.44-1.9,33,33,0,0,1,14-2.8,1,1,0,0,1,1,1,1,1,0,0,1-1,1,31.52,31.52,0,0,0-13.09,2.6A1,1,0,0,1,605.58,191.55Z"/><path class="cls-2" d="M614.59,201.57c1.92,0,3.52,1.12,3.8,2.5s.38,4.61-1.52,5.17c-7.56,2.22-5.31-6.15-4.91-6.69A2.84,2.84,0,0,1,614.59,201.57Z"/><path class="cls-2" d="M606.34,206.66a1,1,0,0,1-.25,0,1,1,0,0,1-.72-1.22c0-.13.86-3.21,5.66-4.79,5-1.65,8.75,2.22,9.15,2.86a1,1,0,0,1-1.71,1.05c-.37-.52-3.27-3.18-6.81-2-3.71,1.22-4.35,3.36-4.36,3.39A1,1,0,0,1,606.34,206.66Z"/><path class="cls-2" d="M643.93,200.12a3.08,3.08,0,0,0-3.06,2.45c-.23,1.31-.34,4.6,1.17,5.19,6,2.32,4.31-6.08,4-6.63A2.1,2.1,0,0,0,643.93,200.12Z"/><path class="cls-2" d="M635.79,204a.68.68,0,0,1-.2,0,1,1,0,0,1-.78-1.17c.24-1.2,3.06-3.37,7.06-3.31s5.55,1.52,5.72,1.68a1,1,0,0,1-1.38,1.45c-.05,0-1.3-1.08-4.38-1.13a6.9,6.9,0,0,0-5.1,1.83A1,1,0,0,1,635.79,204Zm1-.8Z"/><path class="cls-10" d="M614.56,213.64s-11.25-2.87-14.36.78,9.4,6.8,15.6,5.85S617.4,214.22,614.56,213.64Z"/><path class="cls-10" d="M650.47,211.79s-8.36-1.13-9.75,2.9,7.9,5.25,12,3.39S652.55,211.93,650.47,211.79Z"/><path class="cls-5" d="M644.23,223.16S632,228.84,618.35,226c0,0,6.17,10.56,18.28,9.65S644.23,223.16,644.23,223.16Z"/><path class="cls-2" d="M521.53,438.92c11.12-36.26,3.38-74.44,3.38-74.44l-17,26.64c-7.67,31.16-13.38,64.91-17.5,94.92C501.16,476,515.15,459.72,521.53,438.92Z"/><path class="cls-2" d="M578.28,1005.8h-.15a1,1,0,0,1-.84-1.14c.28-1.84,28.17-184.84,37.15-257.9s11-126.59,11-127.12a1,1,0,0,1,1-1,1,1,0,0,1,1,1c0,.54-2,54.17-11,127.29s-36.87,256.12-37.15,258A1,1,0,0,1,578.28,1005.8Z"/><path class="cls-11" d="M626.5,171.23S605.77,188,604,204.9c-6.93,65.78-15.71,87.37-35.85,101.56-37.48,26.4-49.73,9.35-69.72,14.18-29.51,7.14-38.68,43.84-38.68,43.84s-.57-24.36,30.62-76.72c9.05-15.19,36.66-29.31,51.9-52,8.31-12.38,28.34-64.2,49.14-67.1S626.5,171.23,626.5,171.23Z"/><path class="cls-12" d="M558.67,191.43s-10.07-35.48,9.47-47.7,41.7-19.61,50.74-11.18,23.37,31.27,23.13,34.29c-.11,1.38-16.76,2.83-35.43,9.08C584.65,183.25,560.11,195.19,558.67,191.43Z"/><path class="cls-2" d="M556.52,179.63a57.48,57.48,0,0,0,2.15,11.8c1.44,3.76,26-8.18,47.91-15.51,18.67-6.25,35.32-7.7,35.43-9.08.14-1.75-4.56-9.62-8.88-16.32-11.12,1.4-26.59,6-42.49,12.85S562.69,175.51,556.52,179.63Z"/><path class="cls-2" d="M629.32,604l-.2,0a1,1,0,0,1-.78-1.18c5.68-28,2.66-90,2.63-90.64a1,1,0,0,1,2-.1c0,.63,3.07,62.85-2.66,91.14A1,1,0,0,1,629.32,604Z"/><path class="cls-12" d="M537.56,204.86s61.08-27.59,90.49-32.52,73.5-11.62,73.5-11.62-36.49-3.69-58.41-3.29C628.53,157.7,579.32,169.26,537.56,204.86Z"/><path class="cls-13" d="M607.23,623.15h-1.94c-61.78-.29-132-31.82-135-33.17l13.17-29.06c.67.3,67.1,30.06,122,30.32h1.81c44.35,0,67.74-7.61,88.42-14.33,10.27-3.34,20-6.5,31-8.34L731.92,600c-8.66,1.45-16.87,4.12-26.38,7.21C683.73,614.35,656.66,623.15,607.23,623.15Z"/><path class="cls-2" d="M617.78,552.22,467.59,599.69c-9.47,18-21.88,43.37-30.11,67.24,23.95-3.21,64.07-11,97.92-29C587.48,610.11,617.78,552.22,617.78,552.22Z"/><path class="cls-13" d="M653,861.15l-31.86-1.83c3.75-65-15.77-248.83-16-250.68l31.73-3.39C637.74,612.91,656.92,793.57,653,861.15Z"/><path class="cls-8" d="M531.8,321.57S316.15,482.74,339.69,589.3c20.49,92.73,274.23,16,284.37-52.71s-30.34-72.82-54.7-65.08S462.53,501.3,462.53,501.3,538.42,434.47,531.8,321.57Z"/><path class="cls-4" d="M609.6,476.18S618.91,468,627,466s16.16-1.72,21-2.86-1.25,11.87-11.51,13.15S603.9,483.81,609.6,476.18Z"/><path class="cls-13" d="M551.1,825.41c-5-49.86,31.62-214.7,33.19-221.69l31.14,7c-10.33,46.24-36.33,174.38-32.58,211.53Z"/><path class="cls-2" d="M491.06,129.62l30.29,9.57,10,31.07L654.64,546.4,649.71,548l23.65,73.47s10.1,21.24,36.54,15.45,23.27-32.52,20.76-43.68-5.08-15.78-5.08-15.78l-14.3,4.6s9.43,22.54,4.1,31.33-18.66,14.72-25.06-.09-22.86-71-22.86-71l-5.92,1.9L528.09,136.48l21.65-25.75S515.73,120.37,491.06,129.62Z"/><rect class="cls-2" x="478.72" y="3.84" width="13.22" height="29" transform="matrix(0.95, -0.31, 0.31, 0.95, 17.72, 149.59)"/><path class="cls-14" d="M199.76,274.83S266,138.41,309.56,113.47s116.14-52.27,127.92-65,36.64-18.74,78.23-25.18,78.22-25.18,97-22.3S651.1,15.44,651.1,15.44s37.42-7.08,89.61.92S887.21,61.49,911,76.67s-168.07-10.4-168.07-10.4S540.6,100.62,428.69,147.56C428.69,147.56,218.82,250.83,199.76,274.83Z"/><path class="cls-5" d="M428.69,148.56a1,1,0,0,1-.44-.1,1,1,0,0,1-.46-1.34c0-.08,4.16-8.6,7.49-23S447,41.08,447,40.39a1,1,0,0,1,1.12-.88,1,1,0,0,1,.87,1.12c-.08.69-8.43,69.35-11.8,83.94s-7.47,23.08-7.64,23.43A1,1,0,0,1,428.69,148.56Z"/><path class="cls-5" d="M741.11,67.58a1,1,0,0,1-.33-.06c-.55-.19-54.49-19.26-71.89-28.38-20-10.48-56.39-37.07-56.76-37.33A1,1,0,1,1,613.31.19C613.67.46,650,27,669.82,37.36c17.27,9.06,71.08,28.08,71.62,28.27a1,1,0,0,1-.33,2Z"/><path class="cls-5" d="M209.9,265.54a1,1,0,0,1-.55-.17,1,1,0,0,1-.29-1.38l97.09-149.48a1,1,0,0,1,1.68,1.09l-97.1,149.48A1,1,0,0,1,209.9,265.54Z"/><path class="cls-2" d="M613.23,550.13s-5.87,19.76-16.22,5.48-23-68.87-10.34-78.77,20-7,25.59,11.23S625.55,518.23,613.23,550.13Z"/><path class="cls-4" d="M587.37,496.26s18.43-18,22.23-20.08,49.88-5.44,52,1.62-2.72,9.72-3.2,11.12-3.19,8.87-3.55,9.55-2.24,3.1-3.28,4.9-1.75,7.63-3.51,9.31S628.6,511,624,511.93s-25.59,9.76-29.31,9.82S584.55,502.56,587.37,496.26Z"/><path class="cls-2" d="M1276.61,1281s1.89-7.15,15.13-8.2,35.1,1.89,42,4.1,13.66,7.46,14.5,9.35,5.26,10.51,9.67,12.61,19.13,7.14,24,10.72,9,6.09,9.46,8.82-9.67,12.82-13,14.29-32.58,4.63-36.36,4.63-20,.21-20.6,1.47-2.1,14.29-1.47,23.75-3.57,23.32-3.36,38.25,2.1,27.74.42,35.51-41.19,42.45-63,47.29-96.46-13.66-111-17.87-49.6-20.38-72.71-15.55-43.93,20.18-55.91,23.75-35.93,30.47-35.09,35.94,7.56,7.35,8.19,15.55-16,9.67-22.48,2.73.21-27.53,0-32.57,9.66-31.95,11.13-33.63,12-6.51,15.14-11.35,7.77-44.55,22.69-57.37,27.32-15.13,57.8-13.45,76.07,3.15,102.55,1.47,46.45-5.88,61-11.14,24.17-25.85,25.22-29.21S1272.6,1285.81,1276.61,1281Z"/><path class="cls-2" d="M1279.55,1453.55s-23.53,20.17-26.9,28.79-7.56,16.81-7.77,23.11,2.08,15.14,11.86,18.5,11.67,4.21,8.94,8.62-14.92,5.67-25,5.46-18.49-6.1-20-10.51,4-45.81,5-56.11,4.42-17.65,12.19-23.75S1280.6,1444.93,1279.55,1453.55Z"/><path class="cls-2" d="M1296.47,1449.16s11.07,18,22.61,27.71,32.7,23.62,42,27.15,13.32,5.17,4.62,10.24-23,5.53-36.11,2.45-14.84-12.39-22.79-18.63-38.35-28.39-39.65-35.64S1292.52,1446.25,1296.47,1449.16Z"/><path class="cls-2" d="M1083.27,1439.2s-4.11,15.23-11.68,21.22-18.77,11.78-15,21.87,9.63,22.53,15.31,27,11.66,10.09,12.92,15.76-31.21,7.57-35.31,2.21-11.34-39.41-16.39-45.4-19.23-16.71-10.4-27.42S1073.81,1425.27,1083.27,1439.2Z"/><path class="cls-2" d="M1032.65,1382.24s-22.83,9.51-43.64,20.34-83.22-5.57-75.34,6.41,56.74,12.3,76.92,7.57,30.89-7.52,40.35-15.74S1047.28,1379.77,1032.65,1382.24Z"/><path class="cls-15" d="M1391.36,1318.41c-.42-2.73-4.63-5.25-9.46-8.82-2.34-1.73-7-3.81-11.68-5.72-11.22,4.52-29.39,13.72-35,14.46-15.14,2-54-12.32-53.39-4.75.55,6.56,39.35,25.55,39.51,25.22a.64.64,0,0,1,.3-.23,5,5,0,0,1,.91-.26l.23,0c.39-.07.85-.14,1.36-.2l.93-.11c.6-.06,1.26-.11,2-.16l1-.07,1.57-.09c4.83-.24,10.36-.3,12.38-.3,3.78,0,33-3.15,36.36-4.63S1391.78,1321.15,1391.36,1318.41Z"/><path class="cls-2" d="M1290.48,1284.16s-10.09-7.57-20.38.84-21.44,17.44-23.33,27.11,17.86,34.25,27.32,40.77,14.5.63,18.7-9.46-10.08-33.62-5.67-41.4S1293.42,1290,1290.48,1284.16Z"/><path class="cls-15" d="M1361.1,1504a76.79,76.79,0,0,1-10-5c-5.2.53-7.63,4.67-13.91,5.43-7.35.9-18.57-1.54-24.63-.46h0c4.18,5.18,7.74,10.57,17.1,12.77,13.07,3.08,27.41,2.62,36.11-2.45S1370.41,1507.55,1361.1,1504Z"/><path class="cls-15" d="M1256.74,1524a19.4,19.4,0,0,1-3.55-1.65c-5.45,1.59-4.77,5.43-5.58,5.43-1,0-13.24-1-18.92-4.41-3-1.81-5.79-5.56-7.68-8.65-.54,6.5-.76,11.48-.3,12.85,1.47,4.41,9.88,10.3,20,10.51s22.28-1,25-5.46S1266.52,1527.31,1256.74,1524Z"/><path class="cls-2" d="M1391.36,1318.41c-.42-2.73-4.63-5.25-9.46-8.82a31.06,31.06,0,0,0-4.82-2.72c-2.82,1.83-6.6,4.75-5.58,6.71,1.35,2.62,9,11.31,14.61,12.61C1389.06,1323.1,1391.57,1319.8,1391.36,1318.41Z"/><path class="cls-15" d="M1084.84,1525c-1.26-5.67-7.25-11.35-12.92-15.76s-11.53-16.87-15.31-27,7.42-15.88,15-21.87c3.19-2.52,5.76-6.68,7.67-10.65-2.6-1-6.35-.92-11.76,1.78-15.13,7.56-27.11,11.35-21.43,26.79s5.48,27.79-.42,39.43h0c1.46,4.48,2.78,8,3.88,9.44C1053.63,1532.57,1086.1,1530.67,1084.84,1525Z"/><path class="cls-15" d="M1014.33,1473.93c9.69-2.89,25.16-13.47,42.95-20-3.61-3.09-10.59-5.82-23.82,0-21.44,9.45-45.82,17.44-51.7,25.85s-6.73,26.9-14.5,33.41c-2.17,1.81-3.84,3.16-5.16,4.17-.06,4.4.62,8.38,2.85,10.75,6.51,6.94,23.11,5.47,22.48-2.73s-7.35-10.09-8.19-15.55S1002.35,1477.5,1014.33,1473.93Z"/><path class="cls-12" d="M1259.48,1343.25s59.43,15.78,61,16.25.47,15.29,0,16.23-66.51-22.69-67-23.64S1254.8,1342.9,1259.48,1343.25Z"/><path class="cls-5" d="M1324.9,1298.16a1,1,0,0,1-.57-1.82,22.32,22.32,0,0,1,14-3.22,1,1,0,1,1-.18,2,20.63,20.63,0,0,0-12.68,2.87A1,1,0,0,1,1324.9,1298.16Z"/><path class="cls-5" d="M1330.2,1294.85s-1.31,3.75,1.37,5.88,7-5,4.73-6.38S1330.2,1294.85,1330.2,1294.85Z"/><path class="cls-5" d="M1276,1473.77a.51.51,0,0,1-.4-.2.5.5,0,0,1,.1-.7l24.3-18.31a.51.51,0,0,1,.7.1.5.5,0,0,1-.1.7l-24.3,18.31A.47.47,0,0,1,1276,1473.77Z"/><path class="cls-16" d="M1246.64,1357.62s67.94,31.41,73.26,45,4.6,35.55-5.8,44.73c-8.73,7.72-35.93,25.67-44.42,31.22a2.12,2.12,0,0,1-3.19-1.16c-1.66-5.69-7.51-17.88-26.85-16.76-16.72,1-29.2,10.23-35.69,16.33a14.53,14.53,0,0,1-13.06,3.61c-16.29-3.56-52.35-11.64-61.26-15.35-11.6-4.83-35.54-13-35.54-13s-76-51.47-78.37-62.48,52.45-17.3,69.16-17.3,50.31,8,81.26,5.56S1237.93,1372.12,1246.64,1357.62Z"/><path class="cls-16" d="M1312.9,1394.77s-8.46-122.17-12.61-125.07-25.11,3.54-35.1,10-32.56,28.55-34.17,36.84,11.26,39.8,15.62,45.81S1312.9,1394.77,1312.9,1394.77Z"/><path class="cls-2" d="M1154.27,1377.2s-2.39,17.08-1.19,17.57,11.38,0,11.38,0V1377.2Z"/><path class="cls-2" d="M1174,1376.73s-2.5,16.12-1.25,16.6,11.84,0,11.84,0v-17.57Z"/><path class="cls-2" d="M1303.87,1401.67a1,1,0,0,1-.4-.09c-30.15-13.37-57.3-43-57.57-43.29a1,1,0,0,1,1.48-1.34c.27.29,27.15,29.6,56.9,42.8a1,1,0,0,1-.41,1.92Z"/><path class="cls-2" d="M729.28,573.86a1,1,0,0,1-1-.83c-.15-.83-14.82-83.67-12.23-116.37,2.58-32.43-7-81.66-7.06-82.15a1,1,0,1,1,2-.38c.1.49,9.69,50,7.1,82.69-2.58,32.45,12,115,12.2,115.86a1,1,0,0,1-.81,1.16Z"/><path class="cls-2" d="M788.46,560.8a1,1,0,0,1-1-.71l-15.83-52a1,1,0,1,1,1.91-.58l15.83,52a1,1,0,0,1-.66,1.25A1,1,0,0,1,788.46,560.8Z"/><path class="cls-2" d="M382,583.63a3.28,3.28,0,0,1-1.63-.4c-3.29-1.8-2.65-8.83,1.9-20.88,4.09-10.83,18.78-24.56,43.67-40.8,18.44-12,35.93-21,36.11-21.14a1,1,0,0,1,1.34.43,1,1,0,0,1-.43,1.35c-.69.35-69.39,35.89-78.82,60.87-4.6,12.2-4.39,17.55-2.81,18.42s6.31-2,11.71-9.22c9.78-13,26-28.8,37.86-39.2a1,1,0,1,1,1.32,1.5c-11.82,10.34-27.89,26-37.58,38.9C390.77,578.66,385.69,583.63,382,583.63Z"/><path class="cls-2" d="M425.3,581.11l-.2,0a1,1,0,0,1-.78-1.18c4.35-21.23,33.37-62.92,34.6-64.68a1,1,0,0,1,1.64,1.14c-.3.43-30,43.11-34.28,63.94A1,1,0,0,1,425.3,581.11Z"/><path class="cls-2" d="M449.85,787.51l-18-27.45,1.06-.48c51.41-23.31,93.49-74.82,93.91-75.33l.65-.81,16.75,14.64-.18.62c-.22.75-5.64,18.54-26.88,37.53-21.08,18.84-66.05,50.37-66.5,50.68Zm-15-26.6,15.55,23.77c6.3-4.43,46.08-32.61,65.47-49.94,18.65-16.67,25-32.75,26.1-36L527.75,686.3C522.2,692.92,482.66,738.82,434.84,760.91Z"/><path class="cls-2" d="M741.53,760.14l-.26,0c-25.17-6.77-42.11-18.65-51.9-27.42-10.63-9.54-15.24-17.36-15.43-17.69a1,1,0,0,1-.05-.91l13.05-29.62a1,1,0,0,1,1-.59,1,1,0,0,1,.88.77c.07.27,7,27.54,55.81,40.38a1,1,0,1,1-.51,1.93c-41.77-11-53.51-32-56.4-39.31l-11.8,26.77c2.41,3.79,21.53,31.83,65.86,43.75a1,1,0,0,1,.71,1.23A1,1,0,0,1,741.53,760.14Z"/><path class="cls-12" d="M1235.62,827.24s-27.1-39.26-58.48-16.18-69.59,74.25-85.34,72.29c0,0,22.16,33.47,100.67,29.93S1258.38,847,1235.62,827.24Z"/><path class="cls-2" d="M1122.35,883.54a1.5,1.5,0,0,1-.13-3c.38,0,37.68-3.33,72.33-19.82s71.09-72.4,71.45-73a1.5,1.5,0,1,1,2.52,1.64,354,354,0,0,1-22.9,30.6c-18.19,21.76-34.94,36.38-49.78,43.44-35.16,16.73-73,20.06-73.37,20.09Z"/><path class="cls-2" d="M1132.85,896.67a1.47,1.47,0,0,1-1-.39,1.49,1.49,0,0,1-.11-2.12l14.65-16.27-14.47-11.48a1.5,1.5,0,0,1,1.86-2.35l17,13.46L1134,896.17A1.48,1.48,0,0,1,1132.85,896.67Z"/><path class="cls-2" d="M1172.36,892a1.42,1.42,0,0,1-.79-.23,1.51,1.51,0,0,1-.48-2.07L1185.91,866l-27.3-9.44a1.5,1.5,0,0,1,1-2.84l30.86,10.68-16.82,26.84A1.49,1.49,0,0,1,1172.36,892Z"/><path class="cls-2" d="M1213.19,896.67H1213a1.51,1.51,0,0,1-1.32-1.67l5.85-48.91-23.78-23.35a1.5,1.5,0,0,1,2.1-2.14L1220.69,845l-6,50.37A1.5,1.5,0,0,1,1213.19,896.67Z"/><path class="cls-12" d="M143.82,1515.34s-27.1-16.75-58.48-6.91S15.74,1540.1,0,1539.27c0,0,22.16,14.28,100.67,12.76S166.58,1523.75,143.82,1515.34Z"/><path class="cls-2" d="M30.55,1540.21a1.5,1.5,0,0,1-.06-3c.38,0,37.82-1.42,72.6-8.48,34.62-7,71.18-30.89,71.55-31.13a1.5,1.5,0,0,1,1.65,2.5c-.37.25-37.41,24.43-72.6,31.57-35,7.11-72.71,8.53-73.09,8.54Z"/><path class="cls-2" d="M41.05,1545.81a1.5,1.5,0,0,1-.64-2.86l12.36-5.86L40.57,1533a1.49,1.49,0,0,1-.94-1.9,1.5,1.5,0,0,1,1.9-.94l19.23,6.51-19.07,9A1.5,1.5,0,0,1,41.05,1545.81Z"/><path class="cls-2" d="M80.56,1543.81a1.5,1.5,0,0,1-.84-2.74l12.64-8.6-25.28-3.73a1.5,1.5,0,0,1,.44-3l32.88,4.85-19,12.93A1.51,1.51,0,0,1,80.56,1543.81Z"/><path class="cls-2" d="M121.38,1545.81a1.39,1.39,0,0,1-.4-.06,1.49,1.49,0,0,1-1-1.85l5.57-19.89-23.09-9.67a1.5,1.5,0,0,1,1.16-2.77l25.53,10.69-6.29,22.45A1.49,1.49,0,0,1,121.38,1545.81Z"/><path class="cls-16" d="M1328.07,924.73s-22.78-15.36-48.09-3.32-77.52,34-67.77,55.92,101.19,21.81,121.1-6.43S1328.07,924.73,1328.07,924.73Z"/><path class="cls-2" d="M1227.63,969.84a1.5,1.5,0,0,1-.24-3c1-.17,100.29-17.31,141.5-48.32a1.5,1.5,0,0,1,1.81,2.4c-41.8,31.45-141.81,48.7-142.81,48.87A1.15,1.15,0,0,1,1227.63,969.84Z"/><path class="cls-2" d="M1251.05,975.48a1.5,1.5,0,0,1-1.49-1.34l-2.42-22a1.5,1.5,0,0,1,3-.33l2.42,22a1.5,1.5,0,0,1-1.32,1.66Z"/><path class="cls-2" d="M1283.81,970.94a1.5,1.5,0,0,1-1.46-1.16l-5.82-25.16a1.5,1.5,0,1,1,2.92-.67l5.82,25.15a1.5,1.5,0,0,1-1.13,1.8A1.24,1.24,0,0,1,1283.81,970.94Z"/><path class="cls-2" d="M1315.72,966.53a1.5,1.5,0,0,1-1.45-1.11l-8.63-31.69a1.5,1.5,0,1,1,2.9-.78l8.63,31.68a1.51,1.51,0,0,1-1.06,1.84A1.32,1.32,0,0,1,1315.72,966.53Z"/><path class="cls-12" d="M668,1292s-26.93-1-44.84,15.62-56,49.2-38.16,59,100.45-23.8,106.79-48.34S668,1292,668,1292Z"/><path class="cls-2" d="M595.25,1357a1.5,1.5,0,0,1-.74-2.8c.21-.12,21.12-12,44.79-27.85,31.23-21,53.07-39.49,63.14-53.53a1.5,1.5,0,1,1,2.44,1.75c-10.43,14.53-31.94,32.79-63.93,54.28-23.76,16-44.76,27.84-45,28A1.54,1.54,0,0,1,595.25,1357Z"/><path class="cls-2" d="M618.74,1351.81a1.51,1.51,0,0,1-1.12-.5l-11.29-12.57a1.5,1.5,0,0,1,2.23-2l11.3,12.57a1.49,1.49,0,0,1-.12,2.11A1.47,1.47,0,0,1,618.74,1351.81Z"/><path class="cls-2" d="M646.47,1337a1.47,1.47,0,0,1-1-.35l-15.65-13.22a1.5,1.5,0,0,1,1.94-2.29l15.65,13.22a1.5,1.5,0,0,1-1,2.64Z"/><path class="cls-2" d="M673.48,1322.62a1.47,1.47,0,0,1-.91-.31l-20.89-16.18a1.5,1.5,0,0,1,1.84-2.37l20.88,16.18a1.49,1.49,0,0,1,.27,2.1A1.47,1.47,0,0,1,673.48,1322.62Z"/><path class="cls-3" d="M1103.19,251.4s-59.54,77.51-40.62,92S1103.19,251.4,1103.19,251.4Z"/><path class="cls-3" d="M118.08,172.32s-59.54,77.51-40.61,92S118.08,172.32,118.08,172.32Z"/><path class="cls-3" d="M1289.43,443.89s-59.54,77.5-40.62,92S1289.43,443.89,1289.43,443.89Z"/><path class="cls-3" d="M252.55,497.78s-59.54,77.51-40.61,92S252.55,497.78,252.55,497.78Z"/><path class="cls-3" d="M899.84,1181.74s-59.54,77.51-40.61,92S899.84,1181.74,899.84,1181.74Z"/><path class="cls-3" d="M1177.63,547.24s-37.37,30.84-18.44,45.32S1177.63,547.24,1177.63,547.24Z"/><path class="cls-3" d="M1401.59,689.79s-37.37,30.84-18.45,45.32S1401.59,689.79,1401.59,689.79Z"/><path class="cls-3" d="M65.81,727.68S28.43,758.51,47.36,773,65.81,727.68,65.81,727.68Z"/><path class="cls-3" d="M1401.59,1093.67s-37.37,30.84-18.45,45.32S1401.59,1093.67,1401.59,1093.67Z"/><path class="cls-3" d="M264.45,920.5S227.07,951.34,246,965.81,264.45,920.5,264.45,920.5Z"/><path class="cls-3" d="M1011.51,54.77s-37.38,30.84-18.45,45.32S1011.51,54.77,1011.51,54.77Z"/><path class="cls-3" d="M531.08,885.76s-37.38,30.84-18.45,45.32S531.08,885.76,531.08,885.76Z"/><path class="cls-3" d="M952.06,909.55s-37.38,30.84-18.45,45.32S952.06,909.55,952.06,909.55Z"/><path class="cls-3" d="M127.06,1268.57s-37.38,30.84-18.45,45.32S127.06,1268.57,127.06,1268.57Z"/><path class="cls-3" d="M960.05,490.85s-37.38,30.84-18.45,45.32S960.05,490.85,960.05,490.85Z"/><path class="cls-3" d="M1310.51,182.84s-37.37,30.84-18.45,45.32S1310.51,182.84,1310.51,182.84Z"/><path class="cls-3" d="M910.65,281.52s-51.78,42.72-25.56,62.78S910.65,281.52,910.65,281.52Z"/><path class="cls-3" d="M119.49,394.79s-51.78,42.72-25.56,62.78S119.49,394.79,119.49,394.79Z"/></g></g></svg>
